<?xml version="1.0" encoding="utf-8"?>
<!-- Generator: Adobe Illustrator 23.0.6, SVG Export Plug-In . SVG Version: 6.00 Build 0)  -->
<svg version="1.1" xmlns="http://www.w3.org/2000/svg" xmlns:xlink="http://www.w3.org/1999/xlink" x="0px" y="0px"
	 viewBox="0 0 820 502.7" style="enable-background:new 0 0 820 502.7;" xml:space="preserve">
<style type="text/css">
	.st0{fill-rule:evenodd;clip-rule:evenodd;fill:#36486F;}
	.st1{fill-rule:evenodd;clip-rule:evenodd;fill:#2BBCEE;}
	.st2{fill-rule:evenodd;clip-rule:evenodd;fill:#A8DAC9;}
	.st3{fill-rule:evenodd;clip-rule:evenodd;fill:#F7941D;}
	.st4{fill-rule:evenodd;clip-rule:evenodd;fill:#FFCE40;}
	.st5{clip-path:url(#SVGID_2_);}
	.st6{fill:url(#SVGID_3_);}
	.st7{fill:url(#SVGID_4_);}
	.st8{fill:url(#SVGID_5_);}
	.st9{fill:url(#SVGID_6_);}
	.st10{fill:url(#SVGID_7_);}
	.st11{fill:url(#SVGID_8_);}
	.st12{fill:#2BBCEE;}
	.st13{fill:#FFFFFF;}
	.st14{opacity:0.45;}
	.st15{fill:#A8DAC9;}
	.st16{fill:#36486F;}
	.st17{clip-path:url(#SVGID_10_);}
	.st18{fill:url(#SVGID_11_);}
	.st19{fill:url(#SVGID_12_);}
	.st20{fill:url(#SVGID_13_);}
	.st21{fill:url(#SVGID_14_);}
	.st22{fill:url(#SVGID_15_);}
	.st23{fill:url(#SVGID_16_);}
</style>
<g id="Layer_3">
</g>
<g id="Layer_5">
</g>
<g id="Layer_4">
</g>
<g id="bulb">
	<g>
		<defs>
			<circle id="SVGID_9_" cx="648.2" cy="181.7" r="137.9"/>
		</defs>
		<clipPath id="SVGID_2_">
			<use xlink:href="#SVGID_9_"  style="overflow:visible;"/>
		</clipPath>
		<g class="st5">
			<linearGradient id="SVGID_3_" gradientUnits="userSpaceOnUse" x1="571.8162" y1="152.0517" x2="700.5288" y2="30.8845">
				<stop  offset="0" style="stop-color:#F7941D"/>
				<stop  offset="4.613602e-02" style="stop-color:#F99C21"/>
				<stop  offset="0.1603" style="stop-color:#FBAE2B"/>
				<stop  offset="0.2893" style="stop-color:#FEBC34"/>
				<stop  offset="0.4395" style="stop-color:#FFC63B"/>
				<stop  offset="0.6306" style="stop-color:#FFCC3F"/>
				<stop  offset="1" style="stop-color:#FFCE40"/>
			</linearGradient>
			<path class="st6" d="M609,145.1c-0.6,2.2-1.8,8-2.3,16c-0.2,2.6-0.2,5.2-0.2,7.8c0,6.8,0.7,13.7,1.8,20.4
				c-1.9-1.7-4.7-4.6-7.4-7.5c-1.3-1.4-5.5-7.1-6.7-9c-10-15.4-15.2-33.8-15.2-53.1c0-30.2,12.7-59.1,34.7-79.2
				c10.9-0.4,21.5-0.2,31.9,0.5c-22.8,15.2-32.4,45.8-32.4,45.8C639,58.6,671,47.5,684.2,46.4c20.1,4.6,38.1,11.9,53.8,21.5
				c-26-3.8-49.8-1-70.9,8.7C638.5,90.1,617.8,114.4,609,145.1z"/>
			<linearGradient id="SVGID_4_" gradientUnits="userSpaceOnUse" x1="586.4635" y1="230.1525" x2="546.1623" y2="57.0301">
				<stop  offset="0" style="stop-color:#2BBCEE"/>
				<stop  offset="1" style="stop-color:#A8DAC9"/>
			</linearGradient>
			<path class="st7" d="M599.7,195.5c1.6,1.6,6,5.5,12.6,10c2.2,1.4,4.4,2.8,6.7,4.1c5.9,3.4,12.2,6.3,18.6,8.7
				c-2.4,0.8-6.4,1.8-10.2,2.6c-1.9,0.4-8.9,1.2-11.2,1.3c-18.3,0.9-36.9-3.7-53.6-13.4c-26.2-15.1-44.8-40.5-51.2-69.7
				c5.1-9.6,10.6-18.7,16.4-27.4c1.7,27.4,23.5,50.9,23.5,50.9c-11.5-36.4-5.1-69.6,0.5-81.6c14-15.1,29.4-27.1,45.5-35.9
				c-16.3,20.6-25.8,42.7-27.9,65.8C566.8,142.5,577.6,172.5,599.7,195.5z"/>
			<linearGradient id="SVGID_5_" gradientUnits="userSpaceOnUse" x1="677.0408" y1="218.818" x2="508.1324" y2="218.818">
				<stop  offset="0" style="stop-color:#36486F"/>
				<stop  offset="1" style="stop-color:#2BBCEE"/>
			</linearGradient>
			<path class="st8" d="M550.2,212.7c-19-13.4-33.3-32.7-43-57.1c-0.4,18.4-2.8,33.4,3.3,53.2c7.6,10.9,38.2,37.2,75.4,45.4
				c0,0-33.2,7.9-61.2-7.4c4.6,9.3,15.1,21,20.9,30.2c28.5,9.1,59.8,5.6,85.9-9.5c16.7-9.7,30-23.4,38.4-39.7
				c1.1-2.1,3.9-8.5,4.5-10.3c1.2-3.7,2.3-7.6,2.8-10.1c-5.3,4.4-10.9,8.3-16.8,11.8c-2.3,1.3-4.6,2.5-6.9,3.7
				c-7.2,3.5-12.8,5.4-15,6C607.6,236.4,576.3,230.7,550.2,212.7z"/>
			<linearGradient id="SVGID_6_" gradientUnits="userSpaceOnUse" x1="637.1033" y1="322.675" x2="637.1033" y2="166.407">
				<stop  offset="0" style="stop-color:#36486F"/>
				<stop  offset="1" style="stop-color:#2BBCEE"/>
			</linearGradient>
			<path class="st9" d="M628.5,278.9c-21.1,9.7-44.9,12.5-70.9,8.7c15.7,9.6,32.5,23.5,52.6,28.1c13.3,3.7,36.3-9.7,62-37.8
				c0,0,0.6,21.5-22.2,36.7c10.4,0.7,2.2,8,13,7.6c42.3-25.4,53.6-56,53.6-86.2c0-19.3-5.3-37.7-15.2-53.1c-1.3-2-5.4-7.6-6.7-9
				c-2.6-2.9-5.5-5.8-7.4-7.5c1.1,6.8,1.8,13.6,1.8,20.4c0,2.6-0.1,5.2-0.2,7.8c-0.5,8-1.7,13.8-2.3,16
				C677.7,241,657.1,265.3,628.5,278.9z"/>
			<linearGradient id="SVGID_7_" gradientUnits="userSpaceOnUse" x1="703.7322" y1="200.9473" x2="703.7322" y2="74.2255">
				<stop  offset="0" style="stop-color:#2BBCEE"/>
				<stop  offset="1" style="stop-color:#A8DAC9"/>
			</linearGradient>
			<path class="st10" d="M745.7,144.1c19,13.4,33.3,32.7,43,57.1c0.4-18.4-2.3-37.6-8.3-57.4c-7.6-10.9-33.2-33-70.4-41.2
				c0,0,31.3-7,55.8,5.1c-4.6-9.3-9.7-18.7-15.5-27.9c-28.5-9.1-59.8-5.6-85.9,9.5c-16.7,9.7-30,23.4-38.4,39.7
				c-1.1,2.1-3.9,8.5-4.5,10.3c-1.2,3.7-2.3,7.6-2.8,10.1c5.3-4.4,10.9-8.3,16.8-11.8c2.3-1.3,4.6-2.5,6.9-3.7
				c7.2-3.5,12.8-5.4,15-6C688.3,120.3,719.7,126,745.7,144.1z"/>
			
				<linearGradient id="SVGID_8_" gradientUnits="userSpaceOnUse" x1="719.0189" y1="254.9355" x2="723.506" y2="79.2194" gradientTransform="matrix(0.9997 -2.552759e-02 2.552759e-02 0.9997 -5.1632 74.0754)">
				<stop  offset="0" style="stop-color:#36486F"/>
				<stop  offset="1" style="stop-color:#2BBCEE"/>
			</linearGradient>
			<path class="st11" d="M727,244.6c-1.5,23.1-10.4,45.3-26.1,66.2c15.9-9.2,27.9-10.5,41.5-26c5.3-12.1,13.7-56.3,1.3-92.2
				c0,0,22.5,20.4,26.7,59.4c5.6-8.8,8.8-27.3,13.6-37c-7.1-28.9-26.3-53.7-52.7-68.1c-16.9-9.2-35.5-13.3-53.7-12
				c-2.3,0.2-9.2,1.1-11.1,1.6c-3.8,0.9-7.7,2-10.1,2.9c6.4,2.2,12.7,4.9,18.7,8.2c2.3,1.2,4.5,2.6,6.7,3.9
				c6.7,4.3,11.2,8.1,12.8,9.6C717.2,183.5,728.7,213.1,727,244.6z"/>
		</g>
	</g>
	<g>
		<g>
			<path class="st12" d="M54.8,133.5c0,1.2-0.2,2.4-0.5,3.5s-0.8,2.1-1.5,2.9c-0.7,0.8-1.5,1.5-2.6,2c-1.1,0.5-2.4,0.7-4,0.7
				c-1.6,0-2.9-0.2-4-0.7c-1.1-0.5-2-1.2-2.6-2c-0.7-0.8-1.2-1.8-1.5-2.9c-0.3-1.1-0.5-2.3-0.5-3.5v-14h2.7v13.6
				c0,0.9,0.1,1.8,0.3,2.6c0.2,0.9,0.5,1.6,1,2.3c0.4,0.7,1,1.2,1.8,1.6c0.7,0.4,1.7,0.6,2.8,0.6c1.1,0,2.1-0.2,2.8-0.6
				c0.7-0.4,1.3-0.9,1.8-1.6c0.4-0.7,0.8-1.4,1-2.3c0.2-0.9,0.3-1.7,0.3-2.6v-13.6h2.7V133.5z"/>
			<path class="st12" d="M62.6,138.5c0.5,0,1,0.2,1.4,0.6c0.4,0.4,0.6,0.8,0.6,1.4s-0.2,1-0.6,1.4c-0.4,0.4-0.8,0.6-1.3,0.6
				s-0.9-0.2-1.3-0.6c-0.4-0.4-0.6-0.8-0.6-1.4s0.2-1,0.6-1.4C61.6,138.7,62,138.5,62.6,138.5z"/>
			<path class="st12" d="M81.2,123.6c-0.4-0.7-1-1.2-1.8-1.6c-0.7-0.3-1.5-0.5-2.3-0.5c-0.6,0-1.2,0.1-1.8,0.2
				c-0.6,0.1-1.1,0.4-1.5,0.7c-0.5,0.3-0.8,0.7-1.1,1.2c-0.3,0.5-0.4,1.1-0.4,1.7c0,0.5,0.1,1,0.2,1.4c0.2,0.4,0.4,0.7,0.8,1.1
				c0.4,0.3,0.8,0.6,1.5,0.9c0.6,0.3,1.4,0.6,2.3,0.8c0.9,0.3,1.7,0.6,2.5,0.9c0.8,0.3,1.5,0.7,2.2,1.2c0.6,0.5,1.1,1.1,1.5,1.8
				c0.4,0.7,0.6,1.7,0.6,2.8c0,1.1-0.2,2.1-0.7,2.9c-0.4,0.8-1,1.5-1.8,2.1c-0.7,0.5-1.6,0.9-2.5,1.2c-1,0.3-1.9,0.4-3,0.4
				c-0.7,0-1.3-0.1-2-0.2s-1.3-0.3-1.9-0.5c-0.6-0.2-1.2-0.6-1.7-1c-0.5-0.4-1-0.9-1.4-1.5l2.3-1.9c0.5,0.8,1.2,1.5,2,1.9
				c0.9,0.4,1.8,0.6,2.8,0.6c0.6,0,1.2-0.1,1.7-0.3c0.6-0.2,1.1-0.4,1.6-0.7c0.5-0.3,0.9-0.7,1.2-1.2c0.3-0.5,0.4-1.1,0.4-1.7
				c0-0.7-0.1-1.3-0.4-1.7c-0.2-0.4-0.6-0.8-1.1-1.1c-0.5-0.3-1.1-0.6-1.9-0.9c-0.7-0.3-1.6-0.6-2.6-0.9c-0.8-0.3-1.6-0.5-2.2-0.9
				c-0.7-0.3-1.3-0.7-1.8-1.2c-0.5-0.5-0.9-1.1-1.2-1.7c-0.3-0.7-0.4-1.5-0.4-2.4c0-1.1,0.2-2,0.6-2.8c0.4-0.8,1-1.5,1.7-2
				c0.7-0.5,1.5-1,2.5-1.2c0.9-0.3,1.9-0.4,2.9-0.4c1.3,0,2.4,0.2,3.5,0.6c1.1,0.4,2,1.1,2.8,2.1L81.2,123.6z"/>
			<path class="st12" d="M90.5,138.5c0.5,0,1,0.2,1.4,0.6c0.4,0.4,0.6,0.8,0.6,1.4s-0.2,1-0.6,1.4c-0.4,0.4-0.8,0.6-1.3,0.6
				c-0.5,0-0.9-0.2-1.3-0.6c-0.4-0.4-0.6-0.8-0.6-1.4s0.2-1,0.6-1.4C89.5,138.7,89.9,138.5,90.5,138.5z"/>
			<path class="st12" d="M107.8,119.6h3.4l13.1,18.8h0.1v-18.8h2.7v22.6h-3.4l-13.1-18.8h-0.1v18.8h-2.7V119.6z"/>
			<path class="st12" d="M140.7,119.6h2.5l9.6,22.6h-3.1l-2.3-5.6h-11.3l-2.3,5.6h-3L140.7,119.6z M141.9,123L141.9,123l-4.8,11.1
				h9.2L141.9,123z"/>
			<path class="st12" d="M168.6,122.1h-7.5v20.1h-2.7v-20.1H151v-2.5h17.6V122.1z"/>
			<path class="st12" d="M172.4,119.6h2.7v22.6h-2.7V119.6z"/>
			<path class="st12" d="M191.9,142.7c-1.7,0-3.3-0.3-4.7-0.9c-1.4-0.6-2.7-1.4-3.7-2.5s-1.9-2.3-2.5-3.8s-0.9-3-0.9-4.7
				c0-1.7,0.3-3.3,0.9-4.7c0.6-1.5,1.4-2.7,2.5-3.8c1.1-1.1,2.3-1.9,3.7-2.5c1.4-0.6,3-0.9,4.7-0.9c1.7,0,3.3,0.3,4.7,0.9
				c1.4,0.6,2.7,1.4,3.7,2.5c1.1,1.1,1.9,2.3,2.5,3.8c0.6,1.5,0.9,3,0.9,4.7c0,1.7-0.3,3.3-0.9,4.7s-1.4,2.7-2.5,3.8
				c-1.1,1.1-2.3,1.9-3.7,2.5C195.2,142.4,193.6,142.7,191.9,142.7z M191.9,140.2c1.3,0,2.5-0.2,3.6-0.7c1.1-0.5,2-1.2,2.8-2
				c0.8-0.9,1.4-1.8,1.8-3c0.4-1.1,0.7-2.4,0.7-3.7c0-1.3-0.2-2.5-0.7-3.7c-0.4-1.1-1-2.1-1.8-3c-0.8-0.9-1.7-1.5-2.8-2
				c-1.1-0.5-2.3-0.7-3.6-0.7s-2.5,0.2-3.6,0.7c-1.1,0.5-2,1.2-2.8,2c-0.8,0.9-1.4,1.8-1.8,3c-0.4,1.1-0.7,2.4-0.7,3.7
				c0,1.3,0.2,2.5,0.7,3.7c0.4,1.1,1,2.1,1.8,3c0.8,0.9,1.7,1.5,2.8,2S190.6,140.2,191.9,140.2z"/>
			<path class="st12" d="M208.6,119.6h3.4l13.1,18.8h0.1v-18.8h2.7v22.6h-3.4l-13.1-18.8h-0.1v18.8h-2.7V119.6z"/>
			<path class="st12" d="M241.4,119.6h2.5l9.6,22.6h-3.1l-2.3-5.6h-11.3l-2.3,5.6h-3L241.4,119.6z M242.6,123L242.6,123l-4.8,11.1
				h9.2L242.6,123z"/>
			<path class="st12" d="M257.2,119.6h2.7v20.1h10.3v2.5h-13V119.6z"/>
			<path class="st12" d="M45.2,157.9h2.5l9.6,22.6h-3.1l-2.3-5.6H40.6l-2.3,5.6h-3L45.2,157.9z M46.4,161.3L46.4,161.3l-4.8,11.1
				h9.2L46.4,161.3z"/>
			<path class="st12" d="M76.8,162.5c-0.7-0.9-1.5-1.6-2.5-2.1c-1-0.5-2-0.7-3.1-0.7c-1.3,0-2.4,0.3-3.5,0.8c-1.1,0.5-2,1.2-2.7,2.1
				c-0.8,0.9-1.4,1.9-1.8,3s-0.6,2.3-0.6,3.6c0,1.3,0.2,2.5,0.6,3.7s1,2.1,1.8,3c0.8,0.8,1.7,1.5,2.7,2c1.1,0.5,2.2,0.7,3.5,0.7
				c1.4,0,2.6-0.3,3.7-0.8c1.1-0.5,2-1.3,2.8-2.3l2,1.7c-1,1.4-2.3,2.4-3.7,3c-1.4,0.6-3.1,1-4.9,1c-1.6,0-3.1-0.3-4.5-0.9
				c-1.4-0.6-2.6-1.4-3.7-2.5c-1-1.1-1.8-2.3-2.4-3.7c-0.6-1.4-0.9-3-0.9-4.8c0-1.7,0.3-3.2,0.8-4.7c0.6-1.4,1.4-2.7,2.4-3.8
				c1-1.1,2.2-1.9,3.6-2.5c1.4-0.6,2.9-0.9,4.6-0.9c1.5,0,3,0.3,4.4,0.8c1.4,0.6,2.6,1.5,3.6,2.7L76.8,162.5z"/>
			<path class="st12" d="M91.4,157.9h2.5l9.6,22.6h-3.1l-2.3-5.6H86.8l-2.3,5.6h-3L91.4,157.9z M92.6,161.3L92.6,161.3l-4.8,11.1
				h9.2L92.6,161.3z"/>
			<path class="st12" d="M106.7,157.9h8.7c0.7,0,1.5,0.1,2.4,0.3c0.8,0.2,1.7,0.4,2.5,0.8c0.8,0.4,1.6,0.9,2.4,1.5
				c0.8,0.6,1.4,1.3,2,2.2c0.6,0.8,1,1.8,1.4,2.9c0.3,1.1,0.5,2.3,0.5,3.7c0,1.4-0.2,2.6-0.5,3.7c-0.3,1.1-0.8,2.1-1.4,2.9
				c-0.6,0.8-1.2,1.6-2,2.2c-0.8,0.6-1.5,1.1-2.4,1.5c-0.8,0.4-1.6,0.6-2.5,0.8c-0.8,0.2-1.6,0.3-2.4,0.3h-8.7V157.9z M109.4,178
				h5.1c1.3,0,2.5-0.2,3.6-0.5c1.1-0.3,2.1-0.9,2.9-1.6s1.4-1.6,1.9-2.7c0.5-1.1,0.7-2.4,0.7-4c0-1.6-0.2-2.9-0.7-4
				c-0.5-1.1-1.1-2-1.9-2.7c-0.8-0.7-1.8-1.2-2.9-1.6c-1.1-0.3-2.3-0.5-3.6-0.5h-5.1V178z"/>
			<path class="st12" d="M131.4,157.9h14.2v2.5h-11.5v7.1h10.8v2.5h-10.8v8h12.1v2.5h-14.8V157.9z"/>
			<path class="st12" d="M151,157.9h4l7.7,17.7h0.1l7.7-17.7h3.9v22.6h-2.7v-19h-0.1l-8.1,19h-1.6l-8.1-19h-0.1v19H151V157.9z"/>
			<path class="st12" d="M185.9,170.7l-8.4-12.9h3.4l6.4,10.2l6.5-10.2h3.2l-8.4,12.9v9.7h-2.7V170.7z"/>
			<path class="st12" d="M220.2,181c-1.7,0-3.3-0.3-4.7-0.9s-2.7-1.4-3.7-2.5c-1.1-1.1-1.9-2.3-2.5-3.8c-0.6-1.5-0.9-3-0.9-4.7
				c0-1.7,0.3-3.3,0.9-4.7c0.6-1.5,1.4-2.7,2.5-3.8c1.1-1.1,2.3-1.9,3.7-2.5s3-0.9,4.7-0.9c1.7,0,3.3,0.3,4.7,0.9
				c1.4,0.6,2.7,1.4,3.7,2.5c1.1,1.1,1.9,2.3,2.5,3.8c0.6,1.5,0.9,3,0.9,4.7c0,1.7-0.3,3.3-0.9,4.7c-0.6,1.5-1.4,2.7-2.5,3.8
				c-1.1,1.1-2.3,1.9-3.7,2.5C223.5,180.7,221.9,181,220.2,181z M220.2,178.5c1.3,0,2.5-0.2,3.6-0.7c1.1-0.5,2-1.2,2.8-2
				c0.8-0.9,1.4-1.8,1.8-3c0.4-1.1,0.7-2.4,0.7-3.7c0-1.3-0.2-2.5-0.7-3.7c-0.4-1.1-1-2.1-1.8-3c-0.8-0.9-1.7-1.5-2.8-2
				c-1.1-0.5-2.3-0.7-3.6-0.7c-1.3,0-2.5,0.2-3.6,0.7c-1.1,0.5-2,1.2-2.8,2c-0.8,0.9-1.4,1.8-1.8,3c-0.4,1.1-0.7,2.4-0.7,3.7
				c0,1.3,0.2,2.5,0.7,3.7c0.4,1.1,1,2.1,1.8,3c0.8,0.9,1.7,1.5,2.8,2C217.7,178.3,218.9,178.5,220.2,178.5z"/>
			<path class="st12" d="M236.9,157.9h14v2.5h-11.3v7.5h10.5v2.5h-10.5v10.1h-2.7V157.9z"/>
			<path class="st12" d="M264.8,157.9h4l7.7,17.7h0.1l7.7-17.7h3.9v22.6h-2.7v-19h-0.1l-8.1,19h-1.6l-8.1-19h-0.1v19h-2.7V157.9z"/>
			<path class="st12" d="M294.4,157.9h14.2v2.5h-11.5v7.1h10.8v2.5h-10.8v8h12.1v2.5h-14.8V157.9z"/>
			<path class="st12" d="M313.6,157.9h8.7c0.7,0,1.5,0.1,2.4,0.3c0.8,0.2,1.7,0.4,2.5,0.8c0.8,0.4,1.6,0.9,2.4,1.5
				c0.8,0.6,1.4,1.3,2,2.2c0.6,0.8,1,1.8,1.4,2.9c0.3,1.1,0.5,2.3,0.5,3.7c0,1.4-0.2,2.6-0.5,3.7c-0.3,1.1-0.8,2.1-1.4,2.9
				c-0.6,0.8-1.2,1.6-2,2.2c-0.8,0.6-1.5,1.1-2.4,1.5c-0.8,0.4-1.6,0.6-2.5,0.8c-0.8,0.2-1.6,0.3-2.4,0.3h-8.7V157.9z M316.2,178
				h5.1c1.3,0,2.5-0.2,3.6-0.5c1.1-0.3,2.1-0.9,2.9-1.6c0.8-0.7,1.4-1.6,1.9-2.7c0.5-1.1,0.7-2.4,0.7-4c0-1.6-0.2-2.9-0.7-4
				c-0.5-1.1-1.1-2-1.9-2.7c-0.8-0.7-1.8-1.2-2.9-1.6c-1.1-0.3-2.3-0.5-3.6-0.5h-5.1V178z"/>
			<path class="st12" d="M338.3,157.9h2.7v22.6h-2.7V157.9z"/>
			<path class="st12" d="M363,162.5c-0.7-0.9-1.5-1.6-2.5-2.1c-1-0.5-2-0.7-3.1-0.7c-1.3,0-2.4,0.3-3.5,0.8c-1.1,0.5-2,1.2-2.7,2.1
				c-0.8,0.9-1.4,1.9-1.8,3c-0.4,1.1-0.6,2.3-0.6,3.6c0,1.3,0.2,2.5,0.6,3.7c0.4,1.1,1,2.1,1.8,3c0.8,0.8,1.7,1.5,2.7,2
				c1.1,0.5,2.2,0.7,3.5,0.7c1.4,0,2.6-0.3,3.7-0.8c1.1-0.5,2-1.3,2.8-2.3l2,1.7c-1,1.4-2.3,2.4-3.7,3c-1.4,0.6-3.1,1-4.9,1
				c-1.6,0-3.1-0.3-4.5-0.9c-1.4-0.6-2.6-1.4-3.7-2.5c-1-1.1-1.8-2.3-2.4-3.7c-0.6-1.4-0.9-3-0.9-4.8c0-1.7,0.3-3.2,0.8-4.7
				c0.6-1.4,1.4-2.7,2.4-3.8c1-1.1,2.2-1.9,3.6-2.5s2.9-0.9,4.6-0.9c1.5,0,3,0.3,4.4,0.8s2.6,1.5,3.6,2.7L363,162.5z"/>
			<path class="st12" d="M370.3,157.9h2.7v22.6h-2.7V157.9z"/>
			<path class="st12" d="M379.2,157.9h3.4l13.1,18.8h0.1v-18.8h2.7v22.6h-3.4L382,161.7h-0.1v18.8h-2.7V157.9z"/>
			<path class="st12" d="M404.7,157.9h14.2v2.5h-11.5v7.1h10.8v2.5h-10.8v8h12.1v2.5h-14.8V157.9z"/>
		</g>
	</g>
	<g>
		<path class="st13" d="M644.3,138c-33.4,0-60.5,27.1-60.5,60.5c0,10.1,2.5,19.6,7.6,29.1c0.1,0.1,0.2,0.4,0.4,0.8
			c0.5,0.8,1,1.7,1.5,2.6l0,0c1.1,1.8,2.7,4.1,4.7,6.7c1.1,1.4,2.3,2.8,3.5,4.4c4,5,9.1,11.3,10.4,14.8c3.2,8.4,3.8,14.6,3.8,14.7
			l0.5,51.2h49.3l6.7,0l0.6-51.1c0-0.1,0.6-6.3,3.8-14.7c1.3-3.5,6.4-9.8,10.4-14.8c1.2-1.5,2.4-3,3.5-4.4c2.1-2.6,3.6-5,4.7-6.7
			l0,0c0.5-0.9,1-1.7,1.5-2.6c0.2-0.4,0.4-0.7,0.4-0.8c5.1-9.5,7.6-19.1,7.6-29.1C704.8,165.1,677.6,138,644.3,138z"/>
	</g>
	<g class="st14">
		<path class="st15" d="M653.4,153.9c-30.2,0-54.8,24.6-54.8,54.8c0,9.1,2.2,17.8,6.9,26.4c0.1,0.1,0.2,0.3,0.4,0.7
			c0.4,0.8,0.9,1.6,1.3,2.3l0,0c1,1.6,2.4,3.7,4.3,6.1c1,1.3,2.1,2.6,3.2,4c3.7,4.5,8.2,10.2,9.5,13.4c2.9,7.6,3.4,13.2,3.4,13.3
			l0.5,46.4l43.3-4.8l7.4-5.3l0.6-36.3c0-0.1,0.5-5.7,3.4-13.3c1.2-3.2,5.8-8.8,9.5-13.4c1.1-1.4,2.2-2.7,3.2-4
			c1.9-2.4,3.3-4.5,4.3-6.1l0,0c0.5-0.8,0.9-1.6,1.3-2.3c0.2-0.4,0.3-0.6,0.4-0.7c4.6-8.6,6.9-17.3,6.9-26.4
			C708.2,178.5,683.6,153.9,653.4,153.9z"/>
	</g>
	<g>
		<path class="st13" d="M647.8,154.9c-29.1,0-52.8,23.7-52.8,52.8c0,8.8,2.2,17.1,6.6,25.4c0.1,0.1,0.2,0.3,0.4,0.7
			c0.4,0.7,0.8,1.5,1.3,2.2l0,0c1,1.5,2.3,3.6,4.1,5.9c0.9,1.2,2,2.5,3,3.8c3.5,4.4,7.9,9.8,9.1,12.9c2.8,7.3,3.3,12.7,3.3,12.8
			l0.5,52.2h43l5.9,0l0.5-52.2c0-0.1,0.5-5.5,3.3-12.8c1.2-3.1,5.6-8.5,9.1-12.9c1.1-1.3,2.1-2.6,3-3.8c1.8-2.3,3.2-4.3,4.1-5.9l0,0
			c0.4-0.8,0.9-1.5,1.3-2.3c0.2-0.3,0.3-0.6,0.4-0.7c4.4-8.3,6.6-16.6,6.6-25.4C700.5,178.6,676.9,154.9,647.8,154.9z"/>
	</g>
	<g>
		<g>
			<path class="st16" d="M229.8,477.7c-1.6,0.8-3.2,1.4-4.9,1.8c-1.7,0.4-3.5,0.5-5.2,0.5c-1.9,0-3.6-0.3-5.2-0.9
				c-1.6-0.6-3-1.4-4.1-2.5c-1.2-1.1-2.1-2.4-2.7-4c-0.7-1.6-1-3.3-1-5.3c0-1.9,0.3-3.7,1-5.3c0.6-1.6,1.6-2.9,2.7-4
				c1.2-1.1,2.5-2,4.1-2.5c1.6-0.6,3.3-0.9,5.2-0.9c1.9,0,3.7,0.2,5.4,0.7c1.6,0.5,3.1,1.3,4.3,2.4l-3.8,4.1
				c-0.7-0.8-1.6-1.3-2.5-1.7c-0.9-0.4-2.1-0.6-3.4-0.6c-1.1,0-2.2,0.2-3.1,0.6c-0.9,0.4-1.7,0.9-2.4,1.6c-0.7,0.7-1.2,1.5-1.5,2.5
				c-0.4,1-0.5,2-0.5,3.1c0,1.1,0.2,2.2,0.5,3.1s0.9,1.8,1.5,2.5c0.7,0.7,1.5,1.2,2.4,1.6c0.9,0.4,2,0.6,3.1,0.6
				c1.2,0,2.2-0.1,3-0.4c0.8-0.3,1.5-0.5,2-0.8v-3.9h-4.3V465h9.5V477.7z"/>
			<path class="st16" d="M238.8,455.1h5.3v19.3h9.9v4.9h-15.2V455.1z"/>
			<path class="st16" d="M259.8,467.3c0-1.9,0.3-3.7,1-5.3c0.6-1.6,1.6-2.9,2.7-4c1.2-1.1,2.5-2,4.1-2.5c1.6-0.6,3.3-0.9,5.2-0.9
				c1.9,0,3.6,0.3,5.2,0.9c1.6,0.6,3,1.4,4.1,2.5c1.2,1.1,2.1,2.4,2.7,4c0.6,1.6,1,3.3,1,5.3c0,1.9-0.3,3.7-1,5.3
				c-0.7,1.6-1.6,2.9-2.7,4c-1.2,1.1-2.5,2-4.1,2.5c-1.6,0.6-3.3,0.9-5.2,0.9c-1.9,0-3.6-0.3-5.2-0.9c-1.6-0.6-3-1.4-4.1-2.5
				c-1.2-1.1-2.1-2.4-2.7-4C260.1,470.9,259.8,469.2,259.8,467.3z M265.3,467.3c0,1.1,0.2,2.2,0.5,3.1c0.4,0.9,0.9,1.8,1.5,2.5
				c0.7,0.7,1.5,1.2,2.4,1.6s2,0.6,3.1,0.6c1.1,0,2.2-0.2,3.1-0.6s1.7-0.9,2.4-1.6c0.7-0.7,1.2-1.5,1.5-2.5c0.4-0.9,0.5-2,0.5-3.1
				c0-1.1-0.2-2.2-0.5-3.1c-0.4-1-0.9-1.8-1.5-2.5c-0.7-0.7-1.5-1.2-2.4-1.6c-0.9-0.4-2-0.6-3.1-0.6c-1.1,0-2.2,0.2-3.1,0.6
				c-0.9,0.4-1.7,0.9-2.4,1.6c-0.7,0.7-1.2,1.5-1.5,2.5C265.5,465.1,265.3,466.1,265.3,467.3z"/>
			<path class="st16" d="M293.7,455.1h9c1,0,2.1,0.1,3.2,0.2c1.1,0.1,2,0.4,2.9,0.9c0.8,0.4,1.5,1.1,2.1,1.9
				c0.5,0.8,0.8,1.9,0.8,3.2c0,1.4-0.4,2.5-1.1,3.4c-0.8,0.9-1.8,1.5-3,1.9v0.1c0.8,0.1,1.5,0.3,2.2,0.7c0.6,0.3,1.2,0.8,1.7,1.3
				c0.5,0.5,0.8,1.1,1.1,1.8c0.2,0.7,0.4,1.4,0.4,2.2c0,1.3-0.3,2.3-0.8,3.2s-1.3,1.5-2.1,2.1s-1.8,0.9-2.9,1.1
				c-1.1,0.2-2.2,0.3-3.2,0.3h-9.9V455.1z M299,464.8h3.9c0.4,0,0.8,0,1.2-0.1c0.4-0.1,0.8-0.2,1.1-0.4c0.3-0.2,0.6-0.5,0.8-0.8
				c0.2-0.3,0.3-0.8,0.3-1.2c0-0.5-0.1-0.9-0.3-1.2c-0.2-0.3-0.5-0.6-0.8-0.8c-0.3-0.2-0.7-0.3-1.2-0.4c-0.4-0.1-0.9-0.1-1.3-0.1
				H299V464.8z M299,474.8h4.8c0.4,0,0.8,0,1.2-0.1c0.4-0.1,0.8-0.2,1.1-0.5c0.3-0.2,0.6-0.5,0.8-0.9c0.2-0.4,0.3-0.8,0.3-1.3
				c0-0.6-0.1-1-0.4-1.4c-0.3-0.4-0.6-0.6-1.1-0.8c-0.4-0.2-0.9-0.3-1.4-0.4c-0.5-0.1-1-0.1-1.4-0.1h-4V474.8z"/>
			<path class="st16" d="M327.9,455.1h4.4l10.5,24.2h-6l-2.1-5.1h-9.4l-2,5.1h-5.9L327.9,455.1z M329.9,462.2l-2.9,7.5h5.9
				L329.9,462.2z"/>
			<path class="st16" d="M349.6,455.1h5.3v19.3h9.9v4.9h-15.2V455.1z"/>
			<path class="st16" d="M408,477.7c-1.6,0.8-3.2,1.4-4.9,1.8c-1.7,0.4-3.5,0.5-5.2,0.5c-1.9,0-3.6-0.3-5.2-0.9
				c-1.6-0.6-3-1.4-4.1-2.5c-1.2-1.1-2.1-2.4-2.7-4c-0.7-1.6-1-3.3-1-5.3c0-1.9,0.3-3.7,1-5.3c0.6-1.6,1.6-2.9,2.7-4
				c1.2-1.1,2.5-2,4.1-2.5c1.6-0.6,3.3-0.9,5.2-0.9c1.9,0,3.7,0.2,5.4,0.7c1.6,0.5,3.1,1.3,4.3,2.4l-3.8,4.1
				c-0.7-0.8-1.6-1.3-2.5-1.7c-0.9-0.4-2.1-0.6-3.4-0.6c-1.1,0-2.2,0.2-3.1,0.6c-0.9,0.4-1.7,0.9-2.4,1.6c-0.7,0.7-1.2,1.5-1.5,2.5
				c-0.4,1-0.5,2-0.5,3.1c0,1.1,0.2,2.2,0.5,3.1c0.4,0.9,0.9,1.8,1.5,2.5c0.7,0.7,1.5,1.2,2.4,1.6c0.9,0.4,2,0.6,3.1,0.6
				c1.2,0,2.2-0.1,3-0.4c0.8-0.3,1.5-0.5,2-0.8v-3.9h-4.3V465h9.5V477.7z"/>
			<path class="st16" d="M416.8,455.1h9.4c1.2,0,2.4,0.1,3.5,0.4c1.1,0.2,2.1,0.6,2.9,1.2c0.8,0.6,1.5,1.3,2,2.3
				c0.5,0.9,0.7,2.1,0.7,3.5c0,1.7-0.4,3.2-1.3,4.4c-0.9,1.2-2.2,2-3.9,2.3l6.2,10.2h-6.4l-5.1-9.7h-2.6v9.7h-5.3V455.1z
				 M422.1,465.2h3.1c0.5,0,1,0,1.5-0.1c0.5,0,1-0.1,1.5-0.3c0.4-0.2,0.8-0.4,1.1-0.8s0.4-0.9,0.4-1.5c0-0.6-0.1-1.1-0.4-1.5
				c-0.3-0.4-0.6-0.6-1-0.8c-0.4-0.2-0.8-0.3-1.3-0.4c-0.5-0.1-1-0.1-1.5-0.1h-3.5V465.2z"/>
			<path class="st16" d="M451,455.1h4.4l10.5,24.2h-6l-2.1-5.1h-9.4l-2,5.1h-5.9L451,455.1z M453.1,462.2l-2.9,7.5h5.9L453.1,462.2z
				"/>
			<path class="st16" d="M472.5,455.1h7.3L490,472h0.1v-16.8h5.3v24.2h-7l-10.6-17.2h-0.1v17.2h-5.3V455.1z"/>
			<path class="st16" d="M504.5,455.1h8c1.9,0,3.8,0.2,5.5,0.6c1.7,0.4,3.3,1.1,4.6,2.1c1.3,1,2.3,2.2,3.1,3.8
				c0.8,1.6,1.1,3.4,1.1,5.6c0,2-0.4,3.7-1.1,5.2c-0.7,1.5-1.7,2.7-3,3.8c-1.3,1-2.7,1.8-4.3,2.3c-1.6,0.5-3.4,0.8-5.2,0.8h-8.7
				V455.1z M509.8,474.4h2.8c1.2,0,2.4-0.1,3.4-0.4c1.1-0.3,2-0.7,2.8-1.2c0.8-0.6,1.4-1.3,1.8-2.3c0.4-0.9,0.7-2.1,0.7-3.5
				c0-1.2-0.2-2.2-0.7-3.1c-0.4-0.9-1-1.6-1.8-2.2c-0.8-0.6-1.6-1-2.7-1.3c-1-0.3-2.1-0.4-3.2-0.4h-3.1V474.4z"/>
			<path class="st16" d="M564.6,461.4c-0.5-0.6-1.2-1.1-1.9-1.5c-0.8-0.3-1.6-0.5-2.6-0.5c-1,0-1.9,0.2-2.8,0.6
				c-0.9,0.4-1.6,0.9-2.2,1.6c-0.6,0.7-1.1,1.5-1.5,2.5c-0.4,1-0.5,2-0.5,3.1c0,1.1,0.2,2.2,0.5,3.1c0.4,0.9,0.8,1.8,1.5,2.5
				c0.6,0.7,1.3,1.2,2.2,1.6c0.8,0.4,1.7,0.6,2.7,0.6c1.1,0,2.1-0.2,2.9-0.7c0.8-0.5,1.5-1.1,2.1-1.9l4.4,3.3
				c-1,1.4-2.3,2.5-3.9,3.2c-1.6,0.7-3.2,1-4.9,1c-1.9,0-3.6-0.3-5.2-0.9c-1.6-0.6-3-1.4-4.1-2.5c-1.2-1.1-2.1-2.4-2.7-4
				c-0.7-1.6-1-3.3-1-5.3c0-1.9,0.3-3.7,1-5.3c0.6-1.6,1.6-2.9,2.7-4c1.2-1.1,2.5-2,4.1-2.5c1.6-0.6,3.3-0.9,5.2-0.9
				c0.7,0,1.4,0.1,2.1,0.2c0.7,0.1,1.5,0.3,2.2,0.6c0.7,0.3,1.4,0.6,2.1,1.1c0.7,0.5,1.3,1,1.8,1.7L564.6,461.4z"/>
			<path class="st16" d="M576.3,455.1h5.3v9H592v-9h5.3v24.2H592v-10.5h-10.4v10.5h-5.3V455.1z"/>
			<path class="st16" d="M614.3,455.1h4.4l10.5,24.2h-6l-2.1-5.1h-9.4l-2,5.1h-5.9L614.3,455.1z M616.4,462.2l-2.9,7.5h5.9
				L616.4,462.2z"/>
			<path class="st16" d="M636,455.1h5.3v19.3h9.9v4.9H636V455.1z"/>
			<path class="st16" d="M658.5,455.1h5.3v19.3h9.9v4.9h-15.2V455.1z"/>
			<path class="st16" d="M681,455.1h16.5v4.9h-11.1v4.5h10.5v4.9h-10.5v4.9H698v4.9H681V455.1z"/>
			<path class="st16" d="M706.4,455.1h7.3L724,472h0.1v-16.8h5.3v24.2h-7l-10.6-17.2h-0.1v17.2h-5.3V455.1z"/>
			<path class="st16" d="M760.3,477.7c-1.6,0.8-3.2,1.4-4.9,1.8c-1.7,0.4-3.5,0.5-5.2,0.5c-1.9,0-3.6-0.3-5.2-0.9
				c-1.6-0.6-3-1.4-4.1-2.5c-1.2-1.1-2.1-2.4-2.7-4c-0.7-1.6-1-3.3-1-5.3c0-1.9,0.3-3.7,1-5.3c0.6-1.6,1.6-2.9,2.7-4
				c1.2-1.1,2.5-2,4.1-2.5c1.6-0.6,3.3-0.9,5.2-0.9c1.9,0,3.7,0.2,5.4,0.7c1.6,0.5,3.1,1.3,4.3,2.4l-3.8,4.1
				c-0.7-0.8-1.6-1.3-2.5-1.7c-0.9-0.4-2.1-0.6-3.4-0.6c-1.1,0-2.2,0.2-3.1,0.6c-0.9,0.4-1.7,0.9-2.4,1.6c-0.7,0.7-1.2,1.5-1.5,2.5
				c-0.4,1-0.5,2-0.5,3.1c0,1.1,0.2,2.2,0.5,3.1c0.4,0.9,0.9,1.8,1.5,2.5c0.7,0.7,1.5,1.2,2.4,1.6c0.9,0.4,2,0.6,3.1,0.6
				c1.2,0,2.2-0.1,3-0.4s1.5-0.5,2-0.8v-3.9h-4.3V465h9.5V477.7z"/>
			<path class="st16" d="M769.3,455.1h16.5v4.9h-11.1v4.5h10.5v4.9h-10.5v4.9h11.7v4.9h-17.1V455.1z"/>
		</g>
	</g>
	<g>
		<g>
			<path class="st16" d="M206.5,313.3h21.1v76.3h39.1v19.5h-60.2V313.3z"/>
			<path class="st16" d="M267.9,376.2c0-5.2,0.9-10,2.8-14.2c1.9-4.2,4.5-7.9,7.8-10.9c3.3-3,7.2-5.3,11.6-7
				c4.5-1.6,9.2-2.4,14.3-2.4c5.1,0,9.8,0.8,14.3,2.4c4.5,1.6,8.3,3.9,11.6,7c3.3,3,5.9,6.7,7.8,10.9c1.9,4.2,2.8,9,2.8,14.2
				c0,5.2-0.9,10-2.8,14.2c-1.9,4.2-4.5,7.9-7.8,10.9c-3.3,3-7.2,5.3-11.6,7c-4.5,1.6-9.2,2.4-14.3,2.4c-5.1,0-9.8-0.8-14.3-2.4
				c-4.5-1.6-8.3-3.9-11.6-7c-3.3-3-5.9-6.7-7.8-10.9C268.9,386.2,267.9,381.4,267.9,376.2z M288.2,376.2c0,5,1.4,9,4.3,12
				c2.8,3.1,6.8,4.6,12,4.6s9.1-1.5,12-4.6c2.8-3.1,4.3-7.1,4.3-12c0-5-1.4-9-4.3-12c-2.8-3.1-6.8-4.6-12-4.6s-9.1,1.5-12,4.6
				C289.6,367.2,288.2,371.3,288.2,376.2z"/>
			<path class="st16" d="M347.5,343.3H367v8.9h0.3c0.6-1.3,1.5-2.5,2.7-3.8c1.2-1.3,2.6-2.4,4.2-3.4s3.5-1.8,5.5-2.4
				c2.1-0.6,4.3-0.9,6.8-0.9c5.1,0,9.3,0.8,12.5,2.4c3.2,1.6,5.6,3.8,7.4,6.6c1.8,2.8,3,6.1,3.6,9.9c0.6,3.8,0.9,7.9,0.9,12.3v36.3
				h-20.3v-32.2c0-1.9-0.1-3.9-0.2-5.9s-0.5-3.9-1.2-5.6c-0.7-1.7-1.7-3.1-3.1-4.2c-1.4-1.1-3.4-1.6-6-1.6c-2.6,0-4.7,0.5-6.4,1.4
				c-1.6,0.9-2.9,2.2-3.7,3.8c-0.9,1.6-1.4,3.4-1.7,5.3c-0.3,2-0.4,4.1-0.4,6.2v32.8h-20.3V343.3z"/>
			<path class="st16" d="M488.8,403.5c0,12.5-3.1,21.9-9.4,28.4c-6.3,6.4-15.8,9.7-28.6,9.7c-5.9,0-11.6-0.7-17.3-2
				c-5.7-1.3-10.9-3.9-15.7-7.6l11.2-16.8c3.2,2.6,6.5,4.7,9.9,6.2c3.5,1.5,7.3,2.3,11.4,2.3c6.2,0,10.8-1.5,13.7-4.5
				c2.9-3,4.4-6.9,4.4-11.6v-6.4h-0.3c-2.3,3.2-5.3,5.4-8.7,6.7c-3.5,1.3-6.7,2-9.8,2c-4.9,0-9.3-0.8-13.3-2.5c-4-1.7-7.4-4-10.2-7
				c-2.8-3-5-6.6-6.6-10.8c-1.5-4.1-2.3-8.7-2.3-13.7c0-4.3,0.7-8.6,2.1-12.7c1.4-4.1,3.4-7.8,6-11c2.6-3.2,5.7-5.7,9.4-7.6
				c3.7-1.9,7.9-2.9,12.6-2.9c2.9,0,5.5,0.3,7.9,0.9c2.4,0.6,4.5,1.4,6.4,2.4s3.5,2.1,4.9,3.3c1.4,1.2,2.4,2.4,3.2,3.6h0.3v-8.7
				h18.7V403.5z M437.6,375.8c0,2.2,0.4,4.2,1.2,6.2c0.8,1.9,2,3.7,3.5,5.1c1.5,1.5,3.2,2.7,5.1,3.6c1.9,0.9,4.1,1.4,6.4,1.4
				c2.3,0,4.4-0.5,6.4-1.4c2-0.9,3.7-2.1,5.2-3.6c1.5-1.5,2.6-3.2,3.5-5.1c0.8-1.9,1.2-4,1.2-6.2s-0.4-4.2-1.2-6.2
				c-0.8-1.9-2-3.7-3.5-5.1c-1.5-1.5-3.2-2.7-5.2-3.6c-2-0.9-4.1-1.4-6.4-1.4c-2.3,0-4.5,0.5-6.4,1.4c-1.9,0.9-3.7,2.1-5.1,3.6
				c-1.5,1.5-2.6,3.2-3.5,5.1C438,371.6,437.6,373.6,437.6,375.8z"/>
			<path class="st16" d="M559.1,397.7c-3.2,4.2-7.4,7.4-12.3,9.6c-5,2.3-10.1,3.4-15.4,3.4c-5.1,0-9.8-0.8-14.3-2.4
				c-4.5-1.6-8.3-3.9-11.6-7c-3.3-3-5.9-6.7-7.8-10.9c-1.9-4.2-2.8-9-2.8-14.2c0-5.2,0.9-10,2.8-14.2c1.9-4.2,4.5-7.9,7.8-10.9
				c3.3-3,7.2-5.3,11.6-7c4.5-1.6,9.2-2.4,14.3-2.4c4.7,0,9,0.8,12.8,2.4c3.8,1.6,7.1,3.9,9.7,7c2.7,3,4.7,6.7,6.2,10.9
				c1.4,4.2,2.2,9,2.2,14.2v6.4h-47.1c0.8,3.9,2.6,7,5.3,9.3c2.7,2.3,6,3.5,10,3.5c3.3,0,6.2-0.7,8.5-2.2c2.3-1.5,4.3-3.4,6-5.8
				L559.1,397.7z M542,368.8c0.1-3.4-1-6.4-3.4-8.8c-2.3-2.4-5.4-3.7-9.1-3.7c-2.3,0-4.2,0.4-6,1.1c-1.7,0.7-3.2,1.6-4.4,2.8
				c-1.2,1.1-2.2,2.4-2.8,3.9s-1.1,3-1.2,4.7H542z"/>
			<path class="st16" d="M557.3,343.3h21.9l16.6,44.7h0.3l15.4-44.7H632l-26,65.8h-21.5L557.3,343.3z"/>
			<path class="st16" d="M634.3,343.3h20.3v65.8h-20.3V343.3z"/>
			<path class="st16" d="M711.3,359.6h-17.9v21.9c0,1.8,0.1,3.5,0.3,4.9c0.2,1.5,0.6,2.8,1.2,3.9c0.6,1.1,1.6,1.9,2.9,2.5
				c1.3,0.6,3,0.9,5.2,0.9c1.1,0,2.5-0.1,4.3-0.3c1.8-0.2,3.1-0.7,4-1.6v16.9c-2.3,0.8-4.6,1.4-7,1.6c-2.4,0.3-4.8,0.4-7.2,0.4
				c-3.4,0-6.6-0.4-9.5-1.1c-2.9-0.7-5.4-1.9-7.6-3.5c-2.2-1.6-3.9-3.6-5.1-6.2c-1.2-2.5-1.8-5.6-1.8-9.2v-31.3h-13v-16.2h13v-19.5
				h20.3v19.5h17.9V359.6z"/>
			<path class="st16" d="M756.7,419.8c-1.4,3.5-2.7,6.6-3.9,9.3c-1.3,2.7-2.9,5-4.8,6.8c-1.9,1.8-4.4,3.2-7.4,4.2
				c-3,0.9-6.9,1.4-11.8,1.4c-5.2,0-10.3-0.8-15.2-2.4l2.7-16.6c3.1,1.4,6.2,2,9.5,2c2.3,0,4.1-0.2,5.5-0.7c1.4-0.5,2.6-1.2,3.6-2.2
				c0.9-0.9,1.7-2.1,2.4-3.5c0.6-1.4,1.3-2.9,2-4.7l1.5-3.8l-28.8-66.3H734l16.9,43.4h0.3l14.5-43.4h20.8L756.7,419.8z"/>
		</g>
	</g>
	<g>
		<path class="st16" d="M35,202.6h21.1v35.7h41v-35.7h21.1v95.8H97.1V257h-41v41.4H35V202.6z"/>
		<path class="st16" d="M192,287.1c-3.2,4.2-7.4,7.4-12.3,9.6c-5,2.3-10.1,3.4-15.4,3.4c-5.1,0-9.8-0.8-14.3-2.4
			c-4.5-1.6-8.3-3.9-11.6-7c-3.3-3-5.9-6.7-7.8-10.9c-1.9-4.2-2.8-9-2.8-14.2c0-5.2,0.9-10,2.8-14.2c1.9-4.2,4.5-7.9,7.8-10.9
			c3.3-3,7.2-5.3,11.6-7c4.5-1.6,9.2-2.4,14.3-2.4c4.7,0,9,0.8,12.8,2.4c3.8,1.6,7.1,3.9,9.7,7c2.7,3,4.7,6.7,6.2,10.9
			c1.4,4.2,2.2,9,2.2,14.2v6.4H148c0.8,3.9,2.6,7,5.3,9.3c2.7,2.3,6,3.5,10,3.5c3.3,0,6.2-0.7,8.5-2.2s4.3-3.4,6-5.8L192,287.1z
			 M174.8,258.1c0.1-3.4-1-6.4-3.4-8.8c-2.3-2.4-5.4-3.7-9.1-3.7c-2.3,0-4.2,0.4-6,1.1c-1.7,0.7-3.2,1.6-4.4,2.8
			c-1.2,1.1-2.2,2.4-2.8,3.9c-0.7,1.5-1.1,3-1.2,4.7H174.8z"/>
		<path class="st16" d="M246,290.2h-0.3c-2.3,3.5-5.3,6-9,7.6c-3.7,1.5-7.7,2.3-11.8,2.3c-3.1,0-6-0.4-8.9-1.3
			c-2.8-0.9-5.3-2.1-7.5-3.9c-2.2-1.7-3.9-3.8-5.1-6.4c-1.3-2.5-1.9-5.5-1.9-8.8c0-3.8,0.7-7,2.1-9.6c1.4-2.6,3.3-4.8,5.7-6.5
			c2.4-1.7,5.1-3,8.2-4c3.1-0.9,6.2-1.6,9.5-2.1c3.3-0.5,6.6-0.7,9.9-0.8c3.3-0.1,6.3-0.1,9.1-0.1c0-3.6-1.3-6.5-3.9-8.6
			c-2.6-2.1-5.6-3.2-9.1-3.2c-3.3,0-6.4,0.7-9.1,2.1c-2.8,1.4-5.2,3.3-7.4,5.8l-10.8-11.1c3.8-3.5,8.2-6.2,13.3-7.9
			c5.1-1.8,10.3-2.6,15.7-2.6c6,0,10.8,0.7,14.7,2.2c3.8,1.5,6.9,3.7,9.2,6.6c2.3,2.9,3.9,6.4,4.8,10.6c0.9,4.2,1.4,9,1.4,14.5v33.4
			H246V290.2z M240.9,269.6c-1.5,0-3.5,0.1-5.8,0.2c-2.3,0.1-4.5,0.5-6.6,1.2c-2.1,0.6-3.9,1.6-5.4,2.8c-1.5,1.3-2.2,3-2.2,5.3
			c0,2.4,1,4.2,3.1,5.4c2.1,1.2,4.2,1.8,6.5,1.8c2,0,3.9-0.3,5.8-0.8c1.8-0.5,3.5-1.3,4.9-2.3c1.4-1,2.6-2.3,3.5-3.8
			c0.9-1.5,1.3-3.3,1.3-5.4v-4.3H240.9z"/>
		<path class="st16" d="M274.9,196.1h20.3v102.3h-20.3V196.1z"/>
		<path class="st16" d="M351.9,248.9h-17.9v21.9c0,1.8,0.1,3.5,0.3,4.9c0.2,1.5,0.6,2.8,1.2,3.9c0.6,1.1,1.6,1.9,2.9,2.5
			c1.3,0.6,3,0.9,5.2,0.9c1.1,0,2.5-0.1,4.3-0.3c1.8-0.2,3.1-0.7,4-1.6V298c-2.3,0.8-4.6,1.4-7,1.6c-2.4,0.3-4.8,0.4-7.2,0.4
			c-3.4,0-6.6-0.4-9.5-1.1s-5.4-1.9-7.6-3.5c-2.2-1.6-3.9-3.6-5.1-6.2c-1.2-2.5-1.8-5.6-1.8-9.2v-31.3h-13v-16.2h13v-19.5h20.3v19.5
			h17.9V248.9z"/>
		<path class="st16" d="M379.8,196.1v45.5h0.3c0.5-1.3,1.2-2.5,2.3-3.8c1.1-1.3,2.4-2.4,3.9-3.4c1.5-1,3.3-1.8,5.4-2.4
			c2.1-0.6,4.3-0.9,6.8-0.9c5.1,0,9.3,0.8,12.5,2.4c3.2,1.6,5.6,3.8,7.4,6.6c1.8,2.8,3,6.1,3.6,9.9c0.6,3.8,0.9,7.9,0.9,12.3v36.3
			h-20.3v-32.2c0-1.9-0.1-3.9-0.2-5.9c-0.1-2-0.5-3.9-1.2-5.6c-0.7-1.7-1.7-3.1-3.1-4.2c-1.4-1.1-3.4-1.6-6-1.6s-4.7,0.5-6.4,1.4
			c-1.6,0.9-2.9,2.2-3.7,3.8c-0.9,1.6-1.4,3.4-1.7,5.3c-0.3,2-0.4,4.1-0.4,6.2v32.8h-20.3V196.1H379.8z"/>
		<path class="st16" d="M469.7,309.1c-1.4,3.5-2.7,6.6-3.9,9.3c-1.3,2.7-2.9,5-4.8,6.8c-1.9,1.8-4.4,3.2-7.4,4.2
			c-3,0.9-6.9,1.4-11.8,1.4c-5.2,0-10.3-0.8-15.2-2.4l2.7-16.6c3.1,1.4,6.2,2,9.5,2c2.3,0,4.1-0.2,5.5-0.7c1.4-0.5,2.6-1.2,3.6-2.2
			c0.9-0.9,1.7-2.1,2.4-3.5c0.6-1.4,1.3-2.9,2-4.7l1.5-3.8L425,232.7h21.9l16.9,43.4h0.3l14.5-43.4h20.8L469.7,309.1z"/>
	</g>
	<g>
		<path class="st15" d="M632.4,319.9c0-3.2,1.2-6,3.5-8.3c2.3-2.3,5.1-3.5,8.3-3.5s6,1.2,8.3,3.5c2.3,2.3,3.5,5.1,3.5,8.3
			c0,3.2-1.2,6-3.5,8.3c-2.3,2.3-5.1,3.5-8.3,3.5s-6-1.2-8.3-3.5C633.6,325.9,632.4,323.2,632.4,319.9z"/>
	</g>
</g>
<g id="Layer_6">
</g>
</svg>
